<svg viewBox="0 0 2784 416"  version="1.1" xmlns="http://www.w3.org/2000/svg">
<g id="qubit_lines">
<path id="qubit_line:0" d="M64,64 L2752,64 " stroke="black"/>
<text dominant-baseline="central" text-anchor="end" font-family="monospace" font-size="12" x="64" y="64">q0</text>
<path id="qubit_line:1" d="M64,128 L2752,128 " stroke="black"/>
<text dominant-baseline="central" text-anchor="end" font-family="monospace" font-size="12" x="64" y="128">q1</text>
<path id="qubit_line:2" d="M64,192 L2752,192 " stroke="black"/>
<text dominant-baseline="central" text-anchor="end" font-family="monospace" font-size="12" x="64" y="192">q2</text>
<path id="qubit_line:3" d="M64,256 L2752,256 " stroke="black"/>
<text dominant-baseline="central" text-anchor="end" font-family="monospace" font-size="12" x="64" y="256">q3</text>
<path id="qubit_line:4" d="M64,320 L2752,320 " stroke="black"/>
<text dominant-baseline="central" text-anchor="end" font-family="monospace" font-size="12" x="64" y="320">q4</text>
</g>
<rect x="144" y="240" width="32" height="32" stroke="black" fill="black"/>
<text dominant-baseline="central" text-anchor="middle" font-family="monospace" font-size="30" x="160" y="256" fill="white">R</text>
<rect x="144" y="304" width="32" height="32" stroke="black" fill="black"/>
<text dominant-baseline="central" text-anchor="middle" font-family="monospace" font-size="30" x="160" y="320" fill="white">R</text>
<rect x="208" y="240" width="32" height="32" stroke="black" fill="pink"/>
<text dominant-baseline="central" text-anchor="middle" font-family="monospace" font-size="12" x="224" y="256">DEP<tspan baseline-shift="sub" font-size="10">1</tspan></text>
<text dominant-baseline="hanging" text-anchor="middle" font-family="monospace" font-size="10" stroke="red" x="224" y="276">0.01</text>
<rect x="208" y="304" width="32" height="32" stroke="black" fill="pink"/>
<text dominant-baseline="central" text-anchor="middle" font-family="monospace" font-size="12" x="224" y="320">DEP<tspan baseline-shift="sub" font-size="10">1</tspan></text>
<text dominant-baseline="hanging" text-anchor="middle" font-family="monospace" font-size="10" stroke="red" x="224" y="340">0.01</text>
<rect x="208" y="48" width="32" height="32" stroke="black" fill="pink"/>
<text dominant-baseline="central" text-anchor="middle" font-family="monospace" font-size="12" x="224" y="64">DEP<tspan baseline-shift="sub" font-size="10">1</tspan></text>
<text dominant-baseline="hanging" text-anchor="middle" font-family="monospace" font-size="10" stroke="red" x="224" y="84">0.02</text>
<rect x="208" y="112" width="32" height="32" stroke="black" fill="pink"/>
<text dominant-baseline="central" text-anchor="middle" font-family="monospace" font-size="12" x="224" y="128">DEP<tspan baseline-shift="sub" font-size="10">1</tspan></text>
<text dominant-baseline="hanging" text-anchor="middle" font-family="monospace" font-size="10" stroke="red" x="224" y="148">0.02</text>
<rect x="208" y="176" width="32" height="32" stroke="black" fill="pink"/>
<text dominant-baseline="central" text-anchor="middle" font-family="monospace" font-size="12" x="224" y="192">DEP<tspan baseline-shift="sub" font-size="10">1</tspan></text>
<text dominant-baseline="hanging" text-anchor="middle" font-family="monospace" font-size="10" stroke="red" x="224" y="212">0.02</text>
<path d="M132,40 L132,32 L252,32 L252,40 " stroke="black" fill="none"/>
<path d="M132,376 L132,384 L252,384 L252,376 " stroke="black" fill="none"/>
<path d="M288,64 L288,256 " stroke="black"/>
<circle cx="288" cy="64" r="12" stroke="none" fill="black"/>
<circle cx="288" cy="256" r="12" stroke="black" fill="white"/>
<path d="M276,256 L300,256 M288,244 L288,268 " stroke="black"/>
<path d="M352,128 L352,320 " stroke="black"/>
<circle cx="352" cy="128" r="12" stroke="none" fill="black"/>
<circle cx="352" cy="320" r="12" stroke="black" fill="white"/>
<path d="M340,320 L364,320 M352,308 L352,332 " stroke="black"/>
<path d="M416,64 L416,256 " stroke="black"/>
<rect x="400" y="48" width="32" height="32" stroke="black" fill="pink"/>
<text dominant-baseline="central" text-anchor="middle" font-family="monospace" font-size="12" x="416" y="64">DEP<tspan baseline-shift="sub" font-size="10">2</tspan></text>
<rect x="400" y="240" width="32" height="32" stroke="black" fill="pink"/>
<text dominant-baseline="central" text-anchor="middle" font-family="monospace" font-size="12" x="416" y="256">DEP<tspan baseline-shift="sub" font-size="10">2</tspan></text>
<text dominant-baseline="hanging" text-anchor="middle" font-family="monospace" font-size="10" stroke="red" x="416" y="276">0.01</text>
<path d="M480,128 L480,320 " stroke="black"/>
<rect x="464" y="112" width="32" height="32" stroke="black" fill="pink"/>
<text dominant-baseline="central" text-anchor="middle" font-family="monospace" font-size="12" x="480" y="128">DEP<tspan baseline-shift="sub" font-size="10">2</tspan></text>
<rect x="464" y="304" width="32" height="32" stroke="black" fill="pink"/>
<text dominant-baseline="central" text-anchor="middle" font-family="monospace" font-size="12" x="480" y="320">DEP<tspan baseline-shift="sub" font-size="10">2</tspan></text>
<text dominant-baseline="hanging" text-anchor="middle" font-family="monospace" font-size="10" stroke="red" x="480" y="340">0.01</text>
<rect x="528" y="176" width="32" height="32" stroke="black" fill="pink"/>
<text dominant-baseline="central" text-anchor="middle" font-family="monospace" font-size="12" x="544" y="192">DEP<tspan baseline-shift="sub" font-size="10">1</tspan></text>
<text dominant-baseline="hanging" text-anchor="middle" font-family="monospace" font-size="10" stroke="red" x="544" y="212">0.02</text>
<path d="M260,40 L260,32 L572,32 L572,40 " stroke="black" fill="none"/>
<path d="M260,376 L260,384 L572,384 L572,376 " stroke="black" fill="none"/>
<path d="M608,128 L608,256 " stroke="black"/>
<circle cx="608" cy="128" r="12" stroke="none" fill="black"/>
<circle cx="608" cy="256" r="12" stroke="black" fill="white"/>
<path d="M596,256 L620,256 M608,244 L608,268 " stroke="black"/>
<path d="M672,192 L672,320 " stroke="black"/>
<circle cx="672" cy="192" r="12" stroke="none" fill="black"/>
<circle cx="672" cy="320" r="12" stroke="black" fill="white"/>
<path d="M660,320 L684,320 M672,308 L672,332 " stroke="black"/>
<path d="M736,128 L736,256 " stroke="black"/>
<rect x="720" y="112" width="32" height="32" stroke="black" fill="pink"/>
<text dominant-baseline="central" text-anchor="middle" font-family="monospace" font-size="12" x="736" y="128">DEP<tspan baseline-shift="sub" font-size="10">2</tspan></text>
<rect x="720" y="240" width="32" height="32" stroke="black" fill="pink"/>
<text dominant-baseline="central" text-anchor="middle" font-family="monospace" font-size="12" x="736" y="256">DEP<tspan baseline-shift="sub" font-size="10">2</tspan></text>
<text dominant-baseline="hanging" text-anchor="middle" font-family="monospace" font-size="10" stroke="red" x="736" y="276">0.01</text>
<path d="M800,192 L800,320 " stroke="black"/>
<rect x="784" y="176" width="32" height="32" stroke="black" fill="pink"/>
<text dominant-baseline="central" text-anchor="middle" font-family="monospace" font-size="12" x="800" y="192">DEP<tspan baseline-shift="sub" font-size="10">2</tspan></text>
<rect x="784" y="304" width="32" height="32" stroke="black" fill="pink"/>
<text dominant-baseline="central" text-anchor="middle" font-family="monospace" font-size="12" x="800" y="320">DEP<tspan baseline-shift="sub" font-size="10">2</tspan></text>
<text dominant-baseline="hanging" text-anchor="middle" font-family="monospace" font-size="10" stroke="red" x="800" y="340">0.01</text>
<rect x="784" y="48" width="32" height="32" stroke="black" fill="pink"/>
<text dominant-baseline="central" text-anchor="middle" font-family="monospace" font-size="12" x="800" y="64">DEP<tspan baseline-shift="sub" font-size="10">1</tspan></text>
<text dominant-baseline="hanging" text-anchor="middle" font-family="monospace" font-size="10" stroke="red" x="800" y="84">0.02</text>
<path d="M580,40 L580,32 L828,32 L828,40 " stroke="black" fill="none"/>
<path d="M580,376 L580,384 L828,384 L828,376 " stroke="black" fill="none"/>
<rect x="848" y="240" width="32" height="32" stroke="black" fill="black"/>
<text dominant-baseline="central" text-anchor="middle" font-family="monospace" font-size="24" x="864" y="256" fill="white">MR</text>
<text text-anchor="middle" font-family="monospace" font-size="8" x="864" y="236">rec[0]</text>
<rect x="848" y="304" width="32" height="32" stroke="black" fill="black"/>
<text dominant-baseline="central" text-anchor="middle" font-family="monospace" font-size="24" x="864" y="320" fill="white">MR</text>
<text text-anchor="middle" font-family="monospace" font-size="8" x="864" y="300">rec[1]</text>
<rect x="912" y="240" width="32" height="32" stroke="black" fill="pink"/>
<text dominant-baseline="central" text-anchor="middle" font-family="monospace" font-size="12" x="928" y="256">ERR<tspan baseline-shift="sub" font-size="10">X</tspan></text>
<text dominant-baseline="hanging" text-anchor="middle" font-family="monospace" font-size="10" stroke="red" x="928" y="276">0.005</text>
<rect x="912" y="304" width="32" height="32" stroke="black" fill="pink"/>
<text dominant-baseline="central" text-anchor="middle" font-family="monospace" font-size="12" x="928" y="320">ERR<tspan baseline-shift="sub" font-size="10">X</tspan></text>
<text dominant-baseline="hanging" text-anchor="middle" font-family="monospace" font-size="10" stroke="red" x="928" y="340">0.005</text>
<path d="M836,40 L836,32 L956,32 L956,40 " stroke="black" fill="none"/>
<path d="M836,376 L836,384 L956,384 L956,376 " stroke="black" fill="none"/>
<rect x="976" y="240" width="32" height="32" stroke="black" fill="black"/>
<text dominant-baseline="central" text-anchor="middle" font-family="monospace" font-size="30" x="992" y="256" fill="white">R</text>
<rect x="976" y="304" width="32" height="32" stroke="black" fill="black"/>
<text dominant-baseline="central" text-anchor="middle" font-family="monospace" font-size="30" x="992" y="320" fill="white">R</text>
<rect x="1040" y="240" width="32" height="32" stroke="black" fill="pink"/>
<text dominant-baseline="central" text-anchor="middle" font-family="monospace" font-size="12" x="1056" y="256">DEP<tspan baseline-shift="sub" font-size="10">1</tspan></text>
<text dominant-baseline="hanging" text-anchor="middle" font-family="monospace" font-size="10" stroke="red" x="1056" y="276">0.01</text>
<rect x="1040" y="304" width="32" height="32" stroke="black" fill="pink"/>
<text dominant-baseline="central" text-anchor="middle" font-family="monospace" font-size="12" x="1056" y="320">DEP<tspan baseline-shift="sub" font-size="10">1</tspan></text>
<text dominant-baseline="hanging" text-anchor="middle" font-family="monospace" font-size="10" stroke="red" x="1056" y="340">0.01</text>
<rect x="1040" y="48" width="32" height="32" stroke="black" fill="pink"/>
<text dominant-baseline="central" text-anchor="middle" font-family="monospace" font-size="12" x="1056" y="64">DEP<tspan baseline-shift="sub" font-size="10">1</tspan></text>
<text dominant-baseline="hanging" text-anchor="middle" font-family="monospace" font-size="10" stroke="red" x="1056" y="84">0.02</text>
<rect x="1040" y="112" width="32" height="32" stroke="black" fill="pink"/>
<text dominant-baseline="central" text-anchor="middle" font-family="monospace" font-size="12" x="1056" y="128">DEP<tspan baseline-shift="sub" font-size="10">1</tspan></text>
<text dominant-baseline="hanging" text-anchor="middle" font-family="monospace" font-size="10" stroke="red" x="1056" y="148">0.02</text>
<rect x="1040" y="176" width="32" height="32" stroke="black" fill="pink"/>
<text dominant-baseline="central" text-anchor="middle" font-family="monospace" font-size="12" x="1056" y="192">DEP<tspan baseline-shift="sub" font-size="10">1</tspan></text>
<text dominant-baseline="hanging" text-anchor="middle" font-family="monospace" font-size="10" stroke="red" x="1056" y="212">0.02</text>
<path d="M964,40 L964,32 L1084,32 L1084,40 " stroke="black" fill="none"/>
<path d="M964,376 L964,384 L1084,384 L1084,376 " stroke="black" fill="none"/>
<path d="M1120,64 L1120,256 " stroke="black"/>
<circle cx="1120" cy="64" r="12" stroke="none" fill="black"/>
<circle cx="1120" cy="256" r="12" stroke="black" fill="white"/>
<path d="M1108,256 L1132,256 M1120,244 L1120,268 " stroke="black"/>
<path d="M1184,128 L1184,320 " stroke="black"/>
<circle cx="1184" cy="128" r="12" stroke="none" fill="black"/>
<circle cx="1184" cy="320" r="12" stroke="black" fill="white"/>
<path d="M1172,320 L1196,320 M1184,308 L1184,332 " stroke="black"/>
<path d="M1248,64 L1248,256 " stroke="black"/>
<rect x="1232" y="48" width="32" height="32" stroke="black" fill="pink"/>
<text dominant-baseline="central" text-anchor="middle" font-family="monospace" font-size="12" x="1248" y="64">DEP<tspan baseline-shift="sub" font-size="10">2</tspan></text>
<rect x="1232" y="240" width="32" height="32" stroke="black" fill="pink"/>
<text dominant-baseline="central" text-anchor="middle" font-family="monospace" font-size="12" x="1248" y="256">DEP<tspan baseline-shift="sub" font-size="10">2</tspan></text>
<text dominant-baseline="hanging" text-anchor="middle" font-family="monospace" font-size="10" stroke="red" x="1248" y="276">0.01</text>
<path d="M1312,128 L1312,320 " stroke="black"/>
<rect x="1296" y="112" width="32" height="32" stroke="black" fill="pink"/>
<text dominant-baseline="central" text-anchor="middle" font-family="monospace" font-size="12" x="1312" y="128">DEP<tspan baseline-shift="sub" font-size="10">2</tspan></text>
<rect x="1296" y="304" width="32" height="32" stroke="black" fill="pink"/>
<text dominant-baseline="central" text-anchor="middle" font-family="monospace" font-size="12" x="1312" y="320">DEP<tspan baseline-shift="sub" font-size="10">2</tspan></text>
<text dominant-baseline="hanging" text-anchor="middle" font-family="monospace" font-size="10" stroke="red" x="1312" y="340">0.01</text>
<rect x="1360" y="176" width="32" height="32" stroke="black" fill="pink"/>
<text dominant-baseline="central" text-anchor="middle" font-family="monospace" font-size="12" x="1376" y="192">DEP<tspan baseline-shift="sub" font-size="10">1</tspan></text>
<text dominant-baseline="hanging" text-anchor="middle" font-family="monospace" font-size="10" stroke="red" x="1376" y="212">0.02</text>
<path d="M1092,40 L1092,32 L1404,32 L1404,40 " stroke="black" fill="none"/>
<path d="M1092,376 L1092,384 L1404,384 L1404,376 " stroke="black" fill="none"/>
<path d="M1440,128 L1440,256 " stroke="black"/>
<circle cx="1440" cy="128" r="12" stroke="none" fill="black"/>
<circle cx="1440" cy="256" r="12" stroke="black" fill="white"/>
<path d="M1428,256 L1452,256 M1440,244 L1440,268 " stroke="black"/>
<path d="M1504,192 L1504,320 " stroke="black"/>
<circle cx="1504" cy="192" r="12" stroke="none" fill="black"/>
<circle cx="1504" cy="320" r="12" stroke="black" fill="white"/>
<path d="M1492,320 L1516,320 M1504,308 L1504,332 " stroke="black"/>
<path d="M1568,128 L1568,256 " stroke="black"/>
<rect x="1552" y="112" width="32" height="32" stroke="black" fill="pink"/>
<text dominant-baseline="central" text-anchor="middle" font-family="monospace" font-size="12" x="1568" y="128">DEP<tspan baseline-shift="sub" font-size="10">2</tspan></text>
<rect x="1552" y="240" width="32" height="32" stroke="black" fill="pink"/>
<text dominant-baseline="central" text-anchor="middle" font-family="monospace" font-size="12" x="1568" y="256">DEP<tspan baseline-shift="sub" font-size="10">2</tspan></text>
<text dominant-baseline="hanging" text-anchor="middle" font-family="monospace" font-size="10" stroke="red" x="1568" y="276">0.01</text>
<path d="M1632,192 L1632,320 " stroke="black"/>
<rect x="1616" y="176" width="32" height="32" stroke="black" fill="pink"/>
<text dominant-baseline="central" text-anchor="middle" font-family="monospace" font-size="12" x="1632" y="192">DEP<tspan baseline-shift="sub" font-size="10">2</tspan></text>
<rect x="1616" y="304" width="32" height="32" stroke="black" fill="pink"/>
<text dominant-baseline="central" text-anchor="middle" font-family="monospace" font-size="12" x="1632" y="320">DEP<tspan baseline-shift="sub" font-size="10">2</tspan></text>
<text dominant-baseline="hanging" text-anchor="middle" font-family="monospace" font-size="10" stroke="red" x="1632" y="340">0.01</text>
<rect x="1616" y="48" width="32" height="32" stroke="black" fill="pink"/>
<text dominant-baseline="central" text-anchor="middle" font-family="monospace" font-size="12" x="1632" y="64">DEP<tspan baseline-shift="sub" font-size="10">1</tspan></text>
<text dominant-baseline="hanging" text-anchor="middle" font-family="monospace" font-size="10" stroke="red" x="1632" y="84">0.02</text>
<path d="M1412,40 L1412,32 L1660,32 L1660,40 " stroke="black" fill="none"/>
<path d="M1412,376 L1412,384 L1660,384 L1660,376 " stroke="black" fill="none"/>
<rect x="1680" y="240" width="32" height="32" stroke="black" fill="black"/>
<text dominant-baseline="central" text-anchor="middle" font-family="monospace" font-size="24" x="1696" y="256" fill="white">MR</text>
<text text-anchor="middle" font-family="monospace" font-size="8" x="1696" y="236">rec[2]</text>
<rect x="1680" y="304" width="32" height="32" stroke="black" fill="black"/>
<text dominant-baseline="central" text-anchor="middle" font-family="monospace" font-size="24" x="1696" y="320" fill="white">MR</text>
<text text-anchor="middle" font-family="monospace" font-size="8" x="1696" y="300">rec[3]</text>
<rect x="1744" y="240" width="32" height="32" stroke="black" fill="pink"/>
<text dominant-baseline="central" text-anchor="middle" font-family="monospace" font-size="12" x="1760" y="256">ERR<tspan baseline-shift="sub" font-size="10">X</tspan></text>
<text dominant-baseline="hanging" text-anchor="middle" font-family="monospace" font-size="10" stroke="red" x="1760" y="276">0.005</text>
<rect x="1744" y="304" width="32" height="32" stroke="black" fill="pink"/>
<text dominant-baseline="central" text-anchor="middle" font-family="monospace" font-size="12" x="1760" y="320">ERR<tspan baseline-shift="sub" font-size="10">X</tspan></text>
<text dominant-baseline="hanging" text-anchor="middle" font-family="monospace" font-size="10" stroke="red" x="1760" y="340">0.005</text>
<path d="M1668,40 L1668,32 L1788,32 L1788,40 " stroke="black" fill="none"/>
<path d="M1668,376 L1668,384 L1788,384 L1788,376 " stroke="black" fill="none"/>
<rect x="1808" y="240" width="32" height="32" stroke="black" fill="black"/>
<text dominant-baseline="central" text-anchor="middle" font-family="monospace" font-size="30" x="1824" y="256" fill="white">R</text>
<rect x="1808" y="304" width="32" height="32" stroke="black" fill="black"/>
<text dominant-baseline="central" text-anchor="middle" font-family="monospace" font-size="30" x="1824" y="320" fill="white">R</text>
<rect x="1872" y="240" width="32" height="32" stroke="black" fill="pink"/>
<text dominant-baseline="central" text-anchor="middle" font-family="monospace" font-size="12" x="1888" y="256">DEP<tspan baseline-shift="sub" font-size="10">1</tspan></text>
<text dominant-baseline="hanging" text-anchor="middle" font-family="monospace" font-size="10" stroke="red" x="1888" y="276">0.01</text>
<rect x="1872" y="304" width="32" height="32" stroke="black" fill="pink"/>
<text dominant-baseline="central" text-anchor="middle" font-family="monospace" font-size="12" x="1888" y="320">DEP<tspan baseline-shift="sub" font-size="10">1</tspan></text>
<text dominant-baseline="hanging" text-anchor="middle" font-family="monospace" font-size="10" stroke="red" x="1888" y="340">0.01</text>
<rect x="1872" y="48" width="32" height="32" stroke="black" fill="pink"/>
<text dominant-baseline="central" text-anchor="middle" font-family="monospace" font-size="12" x="1888" y="64">DEP<tspan baseline-shift="sub" font-size="10">1</tspan></text>
<text dominant-baseline="hanging" text-anchor="middle" font-family="monospace" font-size="10" stroke="red" x="1888" y="84">0.02</text>
<rect x="1872" y="112" width="32" height="32" stroke="black" fill="pink"/>
<text dominant-baseline="central" text-anchor="middle" font-family="monospace" font-size="12" x="1888" y="128">DEP<tspan baseline-shift="sub" font-size="10">1</tspan></text>
<text dominant-baseline="hanging" text-anchor="middle" font-family="monospace" font-size="10" stroke="red" x="1888" y="148">0.02</text>
<rect x="1872" y="176" width="32" height="32" stroke="black" fill="pink"/>
<text dominant-baseline="central" text-anchor="middle" font-family="monospace" font-size="12" x="1888" y="192">DEP<tspan baseline-shift="sub" font-size="10">1</tspan></text>
<text dominant-baseline="hanging" text-anchor="middle" font-family="monospace" font-size="10" stroke="red" x="1888" y="212">0.02</text>
<path d="M1796,40 L1796,32 L1916,32 L1916,40 " stroke="black" fill="none"/>
<path d="M1796,376 L1796,384 L1916,384 L1916,376 " stroke="black" fill="none"/>
<path d="M1952,64 L1952,256 " stroke="black"/>
<circle cx="1952" cy="64" r="12" stroke="none" fill="black"/>
<circle cx="1952" cy="256" r="12" stroke="black" fill="white"/>
<path d="M1940,256 L1964,256 M1952,244 L1952,268 " stroke="black"/>
<path d="M2016,128 L2016,320 " stroke="black"/>
<circle cx="2016" cy="128" r="12" stroke="none" fill="black"/>
<circle cx="2016" cy="320" r="12" stroke="black" fill="white"/>
<path d="M2004,320 L2028,320 M2016,308 L2016,332 " stroke="black"/>
<path d="M2080,64 L2080,256 " stroke="black"/>
<rect x="2064" y="48" width="32" height="32" stroke="black" fill="pink"/>
<text dominant-baseline="central" text-anchor="middle" font-family="monospace" font-size="12" x="2080" y="64">DEP<tspan baseline-shift="sub" font-size="10">2</tspan></text>
<rect x="2064" y="240" width="32" height="32" stroke="black" fill="pink"/>
<text dominant-baseline="central" text-anchor="middle" font-family="monospace" font-size="12" x="2080" y="256">DEP<tspan baseline-shift="sub" font-size="10">2</tspan></text>
<text dominant-baseline="hanging" text-anchor="middle" font-family="monospace" font-size="10" stroke="red" x="2080" y="276">0.01</text>
<path d="M2144,128 L2144,320 " stroke="black"/>
<rect x="2128" y="112" width="32" height="32" stroke="black" fill="pink"/>
<text dominant-baseline="central" text-anchor="middle" font-family="monospace" font-size="12" x="2144" y="128">DEP<tspan baseline-shift="sub" font-size="10">2</tspan></text>
<rect x="2128" y="304" width="32" height="32" stroke="black" fill="pink"/>
<text dominant-baseline="central" text-anchor="middle" font-family="monospace" font-size="12" x="2144" y="320">DEP<tspan baseline-shift="sub" font-size="10">2</tspan></text>
<text dominant-baseline="hanging" text-anchor="middle" font-family="monospace" font-size="10" stroke="red" x="2144" y="340">0.01</text>
<rect x="2192" y="176" width="32" height="32" stroke="black" fill="pink"/>
<text dominant-baseline="central" text-anchor="middle" font-family="monospace" font-size="12" x="2208" y="192">DEP<tspan baseline-shift="sub" font-size="10">1</tspan></text>
<text dominant-baseline="hanging" text-anchor="middle" font-family="monospace" font-size="10" stroke="red" x="2208" y="212">0.02</text>
<path d="M1924,40 L1924,32 L2236,32 L2236,40 " stroke="black" fill="none"/>
<path d="M1924,376 L1924,384 L2236,384 L2236,376 " stroke="black" fill="none"/>
<path d="M2272,128 L2272,256 " stroke="black"/>
<circle cx="2272" cy="128" r="12" stroke="none" fill="black"/>
<circle cx="2272" cy="256" r="12" stroke="black" fill="white"/>
<path d="M2260,256 L2284,256 M2272,244 L2272,268 " stroke="black"/>
<path d="M2336,192 L2336,320 " stroke="black"/>
<circle cx="2336" cy="192" r="12" stroke="none" fill="black"/>
<circle cx="2336" cy="320" r="12" stroke="black" fill="white"/>
<path d="M2324,320 L2348,320 M2336,308 L2336,332 " stroke="black"/>
<path d="M2400,128 L2400,256 " stroke="black"/>
<rect x="2384" y="112" width="32" height="32" stroke="black" fill="pink"/>
<text dominant-baseline="central" text-anchor="middle" font-family="monospace" font-size="12" x="2400" y="128">DEP<tspan baseline-shift="sub" font-size="10">2</tspan></text>
<rect x="2384" y="240" width="32" height="32" stroke="black" fill="pink"/>
<text dominant-baseline="central" text-anchor="middle" font-family="monospace" font-size="12" x="2400" y="256">DEP<tspan baseline-shift="sub" font-size="10">2</tspan></text>
<text dominant-baseline="hanging" text-anchor="middle" font-family="monospace" font-size="10" stroke="red" x="2400" y="276">0.01</text>
<path d="M2464,192 L2464,320 " stroke="black"/>
<rect x="2448" y="176" width="32" height="32" stroke="black" fill="pink"/>
<text dominant-baseline="central" text-anchor="middle" font-family="monospace" font-size="12" x="2464" y="192">DEP<tspan baseline-shift="sub" font-size="10">2</tspan></text>
<rect x="2448" y="304" width="32" height="32" stroke="black" fill="pink"/>
<text dominant-baseline="central" text-anchor="middle" font-family="monospace" font-size="12" x="2464" y="320">DEP<tspan baseline-shift="sub" font-size="10">2</tspan></text>
<text dominant-baseline="hanging" text-anchor="middle" font-family="monospace" font-size="10" stroke="red" x="2464" y="340">0.01</text>
<rect x="2448" y="48" width="32" height="32" stroke="black" fill="pink"/>
<text dominant-baseline="central" text-anchor="middle" font-family="monospace" font-size="12" x="2464" y="64">DEP<tspan baseline-shift="sub" font-size="10">1</tspan></text>
<text dominant-baseline="hanging" text-anchor="middle" font-family="monospace" font-size="10" stroke="red" x="2464" y="84">0.02</text>
<path d="M2244,40 L2244,32 L2492,32 L2492,40 " stroke="black" fill="none"/>
<path d="M2244,376 L2244,384 L2492,384 L2492,376 " stroke="black" fill="none"/>
<rect x="2512" y="240" width="32" height="32" stroke="black" fill="black"/>
<text dominant-baseline="central" text-anchor="middle" font-family="monospace" font-size="24" x="2528" y="256" fill="white">MR</text>
<text text-anchor="middle" font-family="monospace" font-size="8" x="2528" y="236">rec[4]</text>
<rect x="2512" y="304" width="32" height="32" stroke="black" fill="black"/>
<text dominant-baseline="central" text-anchor="middle" font-family="monospace" font-size="24" x="2528" y="320" fill="white">MR</text>
<text text-anchor="middle" font-family="monospace" font-size="8" x="2528" y="300">rec[5]</text>
<rect x="2576" y="240" width="32" height="32" stroke="black" fill="pink"/>
<text dominant-baseline="central" text-anchor="middle" font-family="monospace" font-size="12" x="2592" y="256">ERR<tspan baseline-shift="sub" font-size="10">X</tspan></text>
<text dominant-baseline="hanging" text-anchor="middle" font-family="monospace" font-size="10" stroke="red" x="2592" y="276">0.005</text>
<rect x="2576" y="304" width="32" height="32" stroke="black" fill="pink"/>
<text dominant-baseline="central" text-anchor="middle" font-family="monospace" font-size="12" x="2592" y="320">ERR<tspan baseline-shift="sub" font-size="10">X</tspan></text>
<text dominant-baseline="hanging" text-anchor="middle" font-family="monospace" font-size="10" stroke="red" x="2592" y="340">0.005</text>
<path d="M2500,40 L2500,32 L2620,32 L2620,40 " stroke="black" fill="none"/>
<path d="M2500,376 L2500,384 L2620,384 L2620,376 " stroke="black" fill="none"/>
<rect x="2640" y="48" width="32" height="32" stroke="black" fill="black"/>
<text dominant-baseline="central" text-anchor="middle" font-family="monospace" font-size="30" x="2656" y="64" fill="white">M</text>
<text text-anchor="middle" font-family="monospace" font-size="8" x="2656" y="44">rec[6]</text>
<rect x="2640" y="112" width="32" height="32" stroke="black" fill="black"/>
<text dominant-baseline="central" text-anchor="middle" font-family="monospace" font-size="30" x="2656" y="128" fill="white">M</text>
<text text-anchor="middle" font-family="monospace" font-size="8" x="2656" y="108">rec[7]</text>
<rect x="2640" y="176" width="32" height="32" stroke="black" fill="black"/>
<text dominant-baseline="central" text-anchor="middle" font-family="monospace" font-size="30" x="2656" y="192" fill="white">M</text>
<text text-anchor="middle" font-family="monospace" font-size="8" x="2656" y="172">rec[8]</text>
<rect x="2704" y="48" width="32" height="32" stroke="black" fill="pink"/>
<text dominant-baseline="central" text-anchor="middle" font-family="monospace" font-size="12" x="2720" y="64">ERR<tspan baseline-shift="sub" font-size="10">X</tspan></text>
<text dominant-baseline="hanging" text-anchor="middle" font-family="monospace" font-size="10" stroke="red" x="2720" y="84">0.005</text>
<rect x="2704" y="112" width="32" height="32" stroke="black" fill="pink"/>
<text dominant-baseline="central" text-anchor="middle" font-family="monospace" font-size="12" x="2720" y="128">ERR<tspan baseline-shift="sub" font-size="10">X</tspan></text>
<text dominant-baseline="hanging" text-anchor="middle" font-family="monospace" font-size="10" stroke="red" x="2720" y="148">0.005</text>
<rect x="2704" y="176" width="32" height="32" stroke="black" fill="pink"/>
<text dominant-baseline="central" text-anchor="middle" font-family="monospace" font-size="12" x="2720" y="192">ERR<tspan baseline-shift="sub" font-size="10">X</tspan></text>
<text dominant-baseline="hanging" text-anchor="middle" font-family="monospace" font-size="10" stroke="red" x="2720" y="212">0.005</text>
<path d="M2628,40 L2628,32 L2748,32 L2748,40 " stroke="black" fill="none"/>
<path d="M2628,376 L2628,384 L2748,384 L2748,376 " stroke="black" fill="none"/>
</svg>